<svg width="314" height="263" viewBox="0 0 314 263" fill="none" xmlns="http://www.w3.org/2000/svg">
<rect x="1.5" width="37.5" height="36.9382" rx="18.4691" fill="#938AA0"/>
<rect x="118.5" y="62.0562" width="37.5" height="36.9382" rx="18.4691" fill="#938AA0"/>
<rect x="172.5" y="62.0562" width="37.5" height="36.9382" rx="18.4691" fill="#938AA0"/>
<rect x="226.5" y="62.0562" width="37.5" height="36.9382" rx="18.4691" fill="#938AA0"/>
<rect x="280.5" y="62.0562" width="37.5" height="36.9382" rx="18.4691" fill="#938AA0"/>
<rect x="60" y="62.0562" width="37.5" height="36.9382" rx="18.4691" fill="#938AA0"/>
<rect x="1.5" y="62.0562" width="37.5" height="36.9382" rx="18.4691" fill="#938AA0"/>
<rect x="172.5" y="116.725" width="37.5" height="36.9382" rx="18.4691" fill="#938AA0"/>
<rect x="280.5" y="116.725" width="37.5" height="36.9382" rx="18.4691" fill="#938AA0"/>
<rect x="226.5" y="116.725" width="37.5" height="36.9382" rx="18.4691" fill="#938AA0"/>
<rect x="118.5" y="116.725" width="37.5" height="36.9382" rx="18.4691" fill="#938AA0"/>
<rect x="60" y="116.725" width="37.5" height="36.9382" rx="18.4691" fill="#938AA0"/>
<rect x="1.5" y="116.725" width="37.5" height="36.9382" rx="18.4691" fill="#938AA0"/>
<rect y="171.393" width="37.5" height="36.9382" rx="18.4691" fill="#938AA0"/>
<rect x="280.5" y="226.062" width="37.5" height="36.9382" rx="18.4691" fill="#938AA0"/>
<rect x="226.5" y="226.062" width="37.5" height="36.9382" rx="18.4691" fill="#938AA0"/>
<rect x="172.5" y="226.062" width="37.5" height="36.9382" rx="18.4691" fill="#938AA0"/>
<rect x="120" y="226.062" width="37.5" height="36.9382" rx="18.4691" fill="#938AA0"/>
<rect x="60" y="226.062" width="37.5" height="36.9382" rx="18.4691" fill="#938AA0"/>
<rect y="226.062" width="37.5" height="36.9382" rx="18.4691" fill="#938AA0"/>
<rect x="60" y="171.393" width="37.5" height="36.9382" rx="18.4691" fill="#938AA0"/>
<rect x="118.5" y="171.393" width="37.5" height="36.9382" rx="18.4691" fill="#938AA0"/>
<rect x="172.5" y="171.393" width="37.5" height="36.9382" rx="18.4691" fill="#938AA0"/>
<rect x="226.5" y="171.393" width="37.5" height="36.9382" rx="18.4691" fill="#938AA0"/>
<rect x="280.5" y="171.393" width="37.5" height="36.9382" rx="18.4691" fill="#938AA0"/>
<rect x="118.5" width="37.5" height="36.9382" rx="18.4691" fill="#938AA0"/>
<rect x="172.5" width="37.5" height="36.9382" rx="18.4691" fill="#938AA0"/>
<rect x="280.5" width="37.5" height="36.9382" rx="18.4691" fill="#938AA0"/>
<rect x="226.5" width="37.5" height="36.9382" rx="18.4691" fill="#938AA0"/>
<rect x="60" width="37.5" height="36.9382" rx="18.4691" fill="#938AA0"/>
</svg>
